<mxfile host="app.diagrams.net" modified="2024-02-27T10:49:33.820Z" agent="Mozilla/5.0 (Macintosh; Intel Mac OS X 10_15_7) AppleWebKit/537.36 (KHTML, like Gecko) Chrome/121.0.0.0 Safari/537.36" version="23.1.2" etag="HRryi-tqEF_WNIXdzUg9" type="github">
  <diagram name="Page-1" id="Kn51mkjl28Rlk_JSDt94">
    <mxGraphModel>
      <root>
        <mxCell id="0" />
        <mxCell id="1" parent="0" />
      </root>
    </mxGraphModel>
  </diagram>
</mxfile>
